# xmcd
#
# Track frame offsets: 
#        150
#        17564
#        38907
#        58321
#        74930
#        95325
#        112784
#        127455
#        147015
#        163373
#        181021
#        202199
#        217588
#        234402
#        252174
#        272666
#        292437
#        307445
#
# Disc length: 4404 seconds
#
# Revision: 2
# Processed by: cddbd v1.5.1PL2 Copyright (c) Steve Scherf et al.
# Submitted via: ExactAudioCopy v0.95a5
#
DISCID=22113212
DTITLE=Los Del Mar and Friends - Macarena
DYEAR=1900
DGENRE=Rhythmic Soul
TTITLE0=Macarena
TTITLE1=Chihuahua
TTITLE2=Bailamos
TTITLE3=Mambo N°5
TTITLE4=Smooth
TTITLE5=Ritmo De La Noche
TTITLE6=Wanna Dance
TTITLE7=Maria Maria
TTITLE8=Baile Latino
TTITLE9=Volare
TTITLE10=Shake Shake
TTITLE11=La Bomba
TTITLE12=Kiss Kiss On A Saturday Night
TTITLE13=Change
TTITLE14=Whao
TTITLE15=Oye Como Va
TTITLE16=Maria (Un Dos Tres)
TTITLE17=Macarena (Remix)
EXTD=
EXTT0=
EXTT1=
EXTT2=
EXTT3=
EXTT4=
EXTT5=
EXTT6=
EXTT7=
EXTT8=
EXTT9=
EXTT10=
EXTT11=
EXTT12=
EXTT13=
EXTT14=
EXTT15=
EXTT16=
EXTT17=
PLAYORDER=
